<mxfile host="app.diagrams.net" modified="2021-10-02T03:42:11.460Z" agent="5.0 (Windows NT 10.0; Win64; x64) AppleWebKit/537.36 (KHTML, like Gecko) Chrome/79.0.3945.130 Safari/537.36" etag="iQByYGgi6sVOb2lY6F2L" version="14.8.2" type="github">
  <diagram id="1IAfdJGNUSwobeGDDLtk" name="Page-1">
    <mxGraphModel dx="1038" dy="548" grid="1" gridSize="10" guides="1" tooltips="1" connect="1" arrows="1" fold="1" page="1" pageScale="1" pageWidth="827" pageHeight="1169" math="0" shadow="0">
      <root>
        <mxCell id="0" />
        <mxCell id="1" parent="0" />
        <mxCell id="SwGvKhNJm9YAALKA78sP-3" value="" style="rounded=0;whiteSpace=wrap;html=1;dashed=1;" parent="1" vertex="1">
          <mxGeometry x="292" y="410" width="226" height="120" as="geometry" />
        </mxCell>
        <mxCell id="7E77wEQ_KyIzuqlhf1cx-62" value="" style="rounded=0;whiteSpace=wrap;html=1;dashed=1;" parent="1" vertex="1">
          <mxGeometry x="110" y="300" width="600" height="100" as="geometry" />
        </mxCell>
        <mxCell id="7E77wEQ_KyIzuqlhf1cx-18" style="edgeStyle=orthogonalEdgeStyle;rounded=0;orthogonalLoop=1;jettySize=auto;html=1;entryX=0.5;entryY=0;entryDx=0;entryDy=0;" parent="1" source="7E77wEQ_KyIzuqlhf1cx-1" target="7E77wEQ_KyIzuqlhf1cx-3" edge="1">
          <mxGeometry relative="1" as="geometry">
            <Array as="points">
              <mxPoint x="140" y="90" />
              <mxPoint x="450" y="90" />
            </Array>
          </mxGeometry>
        </mxCell>
        <mxCell id="7E77wEQ_KyIzuqlhf1cx-1" value="&lt;font style=&quot;vertical-align: inherit&quot;&gt;&lt;font style=&quot;vertical-align: inherit&quot;&gt;&lt;font style=&quot;vertical-align: inherit&quot;&gt;&lt;font style=&quot;vertical-align: inherit ; font-size: 16px&quot;&gt;Targets&lt;/font&gt;&lt;/font&gt;&lt;/font&gt;&lt;/font&gt;" style="shape=card;whiteSpace=wrap;html=1;size=20;" parent="1" vertex="1">
          <mxGeometry x="90" y="115" width="80" height="50" as="geometry" />
        </mxCell>
        <mxCell id="7E77wEQ_KyIzuqlhf1cx-53" value="" style="edgeStyle=orthogonalEdgeStyle;rounded=0;orthogonalLoop=1;jettySize=auto;html=1;endArrow=classicThin;endFill=1;" parent="1" source="7E77wEQ_KyIzuqlhf1cx-2" target="7E77wEQ_KyIzuqlhf1cx-3" edge="1">
          <mxGeometry relative="1" as="geometry" />
        </mxCell>
        <mxCell id="7E77wEQ_KyIzuqlhf1cx-2" value="&lt;font style=&quot;font-size: 17px&quot;&gt;Graph&lt;br&gt;extractor&lt;/font&gt;" style="rounded=1;whiteSpace=wrap;html=1;fillColor=#e1d5e7;strokeColor=#9673a6;" parent="1" vertex="1">
          <mxGeometry x="220" y="115" width="110" height="50" as="geometry" />
        </mxCell>
        <mxCell id="7E77wEQ_KyIzuqlhf1cx-22" style="edgeStyle=orthogonalEdgeStyle;rounded=0;orthogonalLoop=1;jettySize=auto;html=1;entryX=-0.02;entryY=0.569;entryDx=0;entryDy=0;entryPerimeter=0;" parent="1" source="7E77wEQ_KyIzuqlhf1cx-3" target="7E77wEQ_KyIzuqlhf1cx-4" edge="1">
          <mxGeometry relative="1" as="geometry" />
        </mxCell>
        <mxCell id="7E77wEQ_KyIzuqlhf1cx-3" value="&lt;font style=&quot;font-size: 17px&quot;&gt;Target&lt;br&gt;sequence&lt;br&gt;generator&lt;/font&gt;" style="rounded=1;whiteSpace=wrap;html=1;fillColor=#e1d5e7;strokeColor=#9673a6;" parent="1" vertex="1">
          <mxGeometry x="390" y="100" width="120" height="80" as="geometry" />
        </mxCell>
        <mxCell id="7E77wEQ_KyIzuqlhf1cx-4" value="&lt;font style=&quot;font-size: 17px&quot;&gt;Target&lt;br&gt;sequences&lt;/font&gt;" style="shape=card;whiteSpace=wrap;html=1;fillColor=#f5f5f5;strokeColor=#666666;fontColor=#333333;" parent="1" vertex="1">
          <mxGeometry x="580" y="100" width="100" height="70" as="geometry" />
        </mxCell>
        <mxCell id="7E77wEQ_KyIzuqlhf1cx-28" style="edgeStyle=orthogonalEdgeStyle;rounded=0;orthogonalLoop=1;jettySize=auto;html=1;" parent="1" source="7E77wEQ_KyIzuqlhf1cx-5" target="7E77wEQ_KyIzuqlhf1cx-6" edge="1">
          <mxGeometry relative="1" as="geometry" />
        </mxCell>
        <mxCell id="7E77wEQ_KyIzuqlhf1cx-5" value="&lt;font style=&quot;font-size: 17px&quot;&gt;Instrumentor&lt;/font&gt;" style="rounded=1;whiteSpace=wrap;html=1;fillColor=#e1d5e7;strokeColor=#9673a6;" parent="1" vertex="1">
          <mxGeometry x="310" y="230" width="136" height="40" as="geometry" />
        </mxCell>
        <mxCell id="7E77wEQ_KyIzuqlhf1cx-6" value="&lt;font style=&quot;font-size: 17px&quot;&gt;Instrumented&lt;br&gt;binary&lt;/font&gt;" style="shape=card;whiteSpace=wrap;html=1;size=20;fillColor=#f5f5f5;strokeColor=#666666;fontColor=#333333;" parent="1" vertex="1">
          <mxGeometry x="565" y="220" width="130" height="60" as="geometry" />
        </mxCell>
        <mxCell id="7E77wEQ_KyIzuqlhf1cx-24" style="edgeStyle=orthogonalEdgeStyle;rounded=0;orthogonalLoop=1;jettySize=auto;html=1;entryX=0;entryY=0.5;entryDx=0;entryDy=0;" parent="1" source="7E77wEQ_KyIzuqlhf1cx-7" target="7E77wEQ_KyIzuqlhf1cx-5" edge="1">
          <mxGeometry relative="1" as="geometry" />
        </mxCell>
        <mxCell id="7E77wEQ_KyIzuqlhf1cx-61" style="edgeStyle=orthogonalEdgeStyle;rounded=0;orthogonalLoop=1;jettySize=auto;html=1;entryX=0;entryY=0.5;entryDx=0;entryDy=0;endArrow=classicThin;endFill=1;" parent="1" source="7E77wEQ_KyIzuqlhf1cx-7" target="7E77wEQ_KyIzuqlhf1cx-15" edge="1">
          <mxGeometry relative="1" as="geometry">
            <Array as="points">
              <mxPoint x="100" y="435" />
            </Array>
          </mxGeometry>
        </mxCell>
        <mxCell id="7E77wEQ_KyIzuqlhf1cx-7" value="&lt;font style=&quot;font-size: 17px&quot;&gt;&lt;br&gt;Program&lt;br&gt;under&lt;br&gt;test&lt;/font&gt;" style="shape=card;whiteSpace=wrap;html=1;" parent="1" vertex="1">
          <mxGeometry x="80" y="205" width="80" height="90" as="geometry" />
        </mxCell>
        <mxCell id="7E77wEQ_KyIzuqlhf1cx-33" value="" style="edgeStyle=orthogonalEdgeStyle;rounded=0;orthogonalLoop=1;jettySize=auto;html=1;" parent="1" source="7E77wEQ_KyIzuqlhf1cx-8" target="7E77wEQ_KyIzuqlhf1cx-9" edge="1">
          <mxGeometry relative="1" as="geometry" />
        </mxCell>
        <mxCell id="7E77wEQ_KyIzuqlhf1cx-8" value="&lt;font style=&quot;font-size: 17px&quot;&gt;State&lt;br&gt;coordinator&lt;/font&gt;" style="rounded=1;whiteSpace=wrap;html=1;fillColor=#fff2cc;strokeColor=#d6b656;" parent="1" vertex="1">
          <mxGeometry x="120" y="330" width="120" height="50" as="geometry" />
        </mxCell>
        <mxCell id="7E77wEQ_KyIzuqlhf1cx-32" value="" style="edgeStyle=orthogonalEdgeStyle;rounded=0;orthogonalLoop=1;jettySize=auto;html=1;" parent="1" source="7E77wEQ_KyIzuqlhf1cx-9" target="7E77wEQ_KyIzuqlhf1cx-10" edge="1">
          <mxGeometry relative="1" as="geometry" />
        </mxCell>
        <mxCell id="7E77wEQ_KyIzuqlhf1cx-9" value="&lt;font style=&quot;font-size: 17px&quot;&gt;Seed&lt;br&gt;selector&lt;/font&gt;" style="rounded=1;whiteSpace=wrap;html=1;fillColor=#fff2cc;strokeColor=#d6b656;" parent="1" vertex="1">
          <mxGeometry x="280" y="330" width="110" height="50" as="geometry" />
        </mxCell>
        <mxCell id="7E77wEQ_KyIzuqlhf1cx-31" value="" style="edgeStyle=orthogonalEdgeStyle;rounded=0;orthogonalLoop=1;jettySize=auto;html=1;" parent="1" source="7E77wEQ_KyIzuqlhf1cx-10" target="7E77wEQ_KyIzuqlhf1cx-11" edge="1">
          <mxGeometry relative="1" as="geometry" />
        </mxCell>
        <mxCell id="7E77wEQ_KyIzuqlhf1cx-10" value="&lt;span style=&quot;font-size: 17px&quot;&gt;Mutator&lt;/span&gt;" style="rounded=1;whiteSpace=wrap;html=1;fillColor=#fff2cc;strokeColor=#d6b656;" parent="1" vertex="1">
          <mxGeometry x="434" y="330" width="110" height="50" as="geometry" />
        </mxCell>
        <mxCell id="7E77wEQ_KyIzuqlhf1cx-37" value="" style="edgeStyle=orthogonalEdgeStyle;rounded=0;orthogonalLoop=1;jettySize=auto;html=1;" parent="1" source="7E77wEQ_KyIzuqlhf1cx-11" target="7E77wEQ_KyIzuqlhf1cx-17" edge="1">
          <mxGeometry relative="1" as="geometry" />
        </mxCell>
        <mxCell id="7E77wEQ_KyIzuqlhf1cx-11" value="&lt;span style=&quot;font-size: 17px&quot;&gt;Executor&lt;/span&gt;" style="rounded=1;whiteSpace=wrap;html=1;fillColor=#fff2cc;strokeColor=#d6b656;" parent="1" vertex="1">
          <mxGeometry x="584" y="330" width="110" height="50" as="geometry" />
        </mxCell>
        <mxCell id="7E77wEQ_KyIzuqlhf1cx-15" value="&lt;span style=&quot;font-size: 17px&quot;&gt;Concolic&lt;br&gt;executor&lt;br&gt;&lt;/span&gt;" style="rounded=1;whiteSpace=wrap;html=1;fillColor=#fff2cc;strokeColor=#d6b656;" parent="1" vertex="1">
          <mxGeometry x="130" y="410" width="120" height="50" as="geometry" />
        </mxCell>
        <mxCell id="7E77wEQ_KyIzuqlhf1cx-16" value="&lt;font style=&quot;font-size: 17px&quot;&gt;&amp;nbsp; Initial seeds&lt;/font&gt;" style="shape=card;whiteSpace=wrap;html=1;size=20;" parent="1" vertex="1">
          <mxGeometry x="130" y="480" width="120" height="40" as="geometry" />
        </mxCell>
        <mxCell id="7E77wEQ_KyIzuqlhf1cx-17" value="&lt;span style=&quot;font-size: 17px&quot;&gt;Crash&lt;br&gt;queue&lt;br&gt;&lt;/span&gt;" style="shape=card;whiteSpace=wrap;html=1;size=20;" parent="1" vertex="1">
          <mxGeometry x="589" y="450" width="100" height="50" as="geometry" />
        </mxCell>
        <mxCell id="7E77wEQ_KyIzuqlhf1cx-20" value="" style="endArrow=classic;html=1;exitX=0;exitY=0;exitDx=55;exitDy=0;exitPerimeter=0;entryX=0.5;entryY=1;entryDx=0;entryDy=0;" parent="1" source="7E77wEQ_KyIzuqlhf1cx-7" target="7E77wEQ_KyIzuqlhf1cx-2" edge="1">
          <mxGeometry width="50" height="50" relative="1" as="geometry">
            <mxPoint x="220" y="230" as="sourcePoint" />
            <mxPoint x="270" y="180" as="targetPoint" />
          </mxGeometry>
        </mxCell>
        <mxCell id="7E77wEQ_KyIzuqlhf1cx-23" value="" style="endArrow=classic;html=1;exitX=0.5;exitY=1;exitDx=0;exitDy=0;exitPerimeter=0;entryX=0.5;entryY=0;entryDx=0;entryDy=0;" parent="1" source="7E77wEQ_KyIzuqlhf1cx-4" target="7E77wEQ_KyIzuqlhf1cx-5" edge="1">
          <mxGeometry width="50" height="50" relative="1" as="geometry">
            <mxPoint x="490" y="260" as="sourcePoint" />
            <mxPoint x="540" y="210" as="targetPoint" />
          </mxGeometry>
        </mxCell>
        <mxCell id="7E77wEQ_KyIzuqlhf1cx-30" value="" style="endArrow=classic;html=1;exitX=0.5;exitY=1;exitDx=0;exitDy=0;exitPerimeter=0;" parent="1" source="7E77wEQ_KyIzuqlhf1cx-6" edge="1">
          <mxGeometry width="50" height="50" relative="1" as="geometry">
            <mxPoint x="620" y="350" as="sourcePoint" />
            <mxPoint x="630" y="330" as="targetPoint" />
          </mxGeometry>
        </mxCell>
        <mxCell id="7E77wEQ_KyIzuqlhf1cx-38" value="&lt;font style=&quot;font-size: 16px&quot;&gt;Directed seeds queue&lt;/font&gt;" style="rounded=0;whiteSpace=wrap;html=1;fillColor=#f8cecc;strokeColor=#b85450;" parent="1" vertex="1">
          <mxGeometry x="320" y="440" width="170" height="40" as="geometry" />
        </mxCell>
        <mxCell id="7E77wEQ_KyIzuqlhf1cx-39" value="&lt;span&gt;&lt;font style=&quot;font-size: 16px&quot;&gt;Coverage seeds queue&lt;/font&gt;&lt;/span&gt;" style="rounded=0;whiteSpace=wrap;html=1;fillColor=#e1d5e7;strokeColor=#9673a6;" parent="1" vertex="1">
          <mxGeometry x="320" y="480" width="170" height="40" as="geometry" />
        </mxCell>
        <mxCell id="7E77wEQ_KyIzuqlhf1cx-40" value="" style="endArrow=classic;html=1;exitX=0.5;exitY=1;exitDx=0;exitDy=0;entryX=1;entryY=0.5;entryDx=0;entryDy=0;strokeColor=#FF3333;" parent="1" source="7E77wEQ_KyIzuqlhf1cx-11" target="7E77wEQ_KyIzuqlhf1cx-38" edge="1">
          <mxGeometry width="50" height="50" relative="1" as="geometry">
            <mxPoint x="460" y="650" as="sourcePoint" />
            <mxPoint x="510" y="600" as="targetPoint" />
          </mxGeometry>
        </mxCell>
        <mxCell id="7E77wEQ_KyIzuqlhf1cx-41" value="" style="endArrow=classic;html=1;exitX=0.5;exitY=1;exitDx=0;exitDy=0;entryX=1;entryY=0.5;entryDx=0;entryDy=0;strokeColor=#FF3333;" parent="1" source="7E77wEQ_KyIzuqlhf1cx-11" target="7E77wEQ_KyIzuqlhf1cx-39" edge="1">
          <mxGeometry width="50" height="50" relative="1" as="geometry">
            <mxPoint x="460" y="660" as="sourcePoint" />
            <mxPoint x="510" y="610" as="targetPoint" />
          </mxGeometry>
        </mxCell>
        <mxCell id="7E77wEQ_KyIzuqlhf1cx-47" value="" style="endArrow=classic;startArrow=classic;html=1;exitX=1;exitY=0.5;exitDx=0;exitDy=0;entryX=0;entryY=0.5;entryDx=0;entryDy=0;strokeColor=#FF3333;" parent="1" source="7E77wEQ_KyIzuqlhf1cx-15" target="7E77wEQ_KyIzuqlhf1cx-38" edge="1">
          <mxGeometry width="50" height="50" relative="1" as="geometry">
            <mxPoint x="340" y="630" as="sourcePoint" />
            <mxPoint x="390" y="580" as="targetPoint" />
          </mxGeometry>
        </mxCell>
        <mxCell id="7E77wEQ_KyIzuqlhf1cx-49" value="" style="endArrow=classic;html=1;exitX=1;exitY=0.5;exitDx=0;exitDy=0;exitPerimeter=0;" parent="1" source="7E77wEQ_KyIzuqlhf1cx-16" edge="1">
          <mxGeometry width="50" height="50" relative="1" as="geometry">
            <mxPoint x="230" y="620" as="sourcePoint" />
            <mxPoint x="320" y="500" as="targetPoint" />
          </mxGeometry>
        </mxCell>
        <mxCell id="7E77wEQ_KyIzuqlhf1cx-54" value="&lt;font style=&quot;font-size: 16px&quot;&gt;CG&lt;/font&gt;" style="text;html=1;strokeColor=none;fillColor=none;align=center;verticalAlign=middle;whiteSpace=wrap;rounded=0;" parent="1" vertex="1">
          <mxGeometry x="340" y="115" width="40" height="20" as="geometry" />
        </mxCell>
        <mxCell id="7E77wEQ_KyIzuqlhf1cx-55" value="&lt;span style=&quot;color: rgb(0 , 0 , 0) ; font-family: &amp;#34;helvetica&amp;#34; ; font-size: 16px ; font-style: normal ; font-weight: 400 ; letter-spacing: normal ; text-align: center ; text-indent: 0px ; text-transform: none ; word-spacing: 0px ; background-color: rgb(248 , 249 , 250) ; display: inline ; float: none&quot;&gt;CFG&lt;/span&gt;" style="text;whiteSpace=wrap;html=1;" parent="1" vertex="1">
          <mxGeometry x="340" y="140" width="50" height="30" as="geometry" />
        </mxCell>
        <mxCell id="7E77wEQ_KyIzuqlhf1cx-57" value="&lt;font style=&quot;font-size: 14px&quot;&gt;state&lt;/font&gt;" style="text;html=1;strokeColor=none;fillColor=none;align=center;verticalAlign=middle;whiteSpace=wrap;rounded=0;" parent="1" vertex="1">
          <mxGeometry x="240" y="330" width="40" height="20" as="geometry" />
        </mxCell>
        <mxCell id="7E77wEQ_KyIzuqlhf1cx-58" value="&lt;font style=&quot;font-size: 14px&quot;&gt;seed&lt;/font&gt;" style="text;html=1;strokeColor=none;fillColor=none;align=center;verticalAlign=middle;whiteSpace=wrap;rounded=0;" parent="1" vertex="1">
          <mxGeometry x="390" y="330" width="40" height="20" as="geometry" />
        </mxCell>
        <mxCell id="7E77wEQ_KyIzuqlhf1cx-59" value="&lt;font style=&quot;font-size: 14px&quot;&gt;input&lt;/font&gt;" style="text;html=1;strokeColor=none;fillColor=none;align=center;verticalAlign=middle;whiteSpace=wrap;rounded=0;" parent="1" vertex="1">
          <mxGeometry x="544" y="330" width="40" height="20" as="geometry" />
        </mxCell>
        <mxCell id="7E77wEQ_KyIzuqlhf1cx-63" value="&lt;font style=&quot;font-size: 18px&quot;&gt;&lt;b&gt;Fuzzer&lt;/b&gt;&lt;/font&gt;" style="text;html=1;strokeColor=none;fillColor=none;align=center;verticalAlign=middle;whiteSpace=wrap;rounded=0;dashed=1;" parent="1" vertex="1">
          <mxGeometry x="150" y="310" width="40" height="20" as="geometry" />
        </mxCell>
        <mxCell id="SwGvKhNJm9YAALKA78sP-5" value="&lt;span style=&quot;color: rgb(0 , 0 , 0) ; font-family: &amp;#34;helvetica&amp;#34; ; font-size: 15px ; font-style: normal ; letter-spacing: normal ; text-align: center ; text-indent: 0px ; text-transform: none ; word-spacing: 0px ; background-color: rgb(248 , 249 , 250) ; display: inline ; float: none&quot;&gt;&lt;b&gt;Seeds queue&lt;/b&gt;&lt;/span&gt;" style="text;whiteSpace=wrap;html=1;" parent="1" vertex="1">
          <mxGeometry x="355" y="410" width="110" height="30" as="geometry" />
        </mxCell>
        <mxCell id="SwGvKhNJm9YAALKA78sP-6" value="" style="endArrow=classic;html=1;strokeColor=#FF3333;entryX=0.5;entryY=1;entryDx=0;entryDy=0;exitX=0.5;exitY=0;exitDx=0;exitDy=0;" parent="1" source="SwGvKhNJm9YAALKA78sP-5" target="7E77wEQ_KyIzuqlhf1cx-9" edge="1">
          <mxGeometry width="50" height="50" relative="1" as="geometry">
            <mxPoint x="260" y="660" as="sourcePoint" />
            <mxPoint x="310" y="610" as="targetPoint" />
          </mxGeometry>
        </mxCell>
        <mxCell id="4QFPHNypOs-QkE_6nL3h-2" value="" style="endArrow=classic;startArrow=classic;html=1;exitX=1;exitY=0.5;exitDx=0;exitDy=0;strokeColor=#FF3333;" edge="1" parent="1" source="7E77wEQ_KyIzuqlhf1cx-15">
          <mxGeometry width="50" height="50" relative="1" as="geometry">
            <mxPoint x="270" y="540" as="sourcePoint" />
            <mxPoint x="320" y="490" as="targetPoint" />
          </mxGeometry>
        </mxCell>
      </root>
    </mxGraphModel>
  </diagram>
</mxfile>
